<svg width="83" height="15" viewBox="0 0 83 15" fill="none" xmlns="http://www.w3.org/2000/svg">
<g clip-path="url(#clip0_1_853)">
<path fill-rule="evenodd" clip-rule="evenodd" d="M7.40431 0.295954L9.19627 4.38313C9.26214 4.53752 9.39533 4.64645 9.55139 4.67356L13.5583 5.32897C13.7395 5.3667 13.8866 5.50841 13.9413 5.69774C13.9959 5.88707 13.9492 6.09335 13.8197 6.23457L10.9203 9.41598C10.8083 9.5407 10.758 9.71503 10.7846 9.88591L11.4691 14.3782C11.5064 14.5713 11.4372 14.7703 11.2911 14.8897C11.1451 15.0092 10.9481 15.0279 10.7848 14.9378L7.20084 12.8169C7.06431 12.7356 6.89842 12.7356 6.76189 12.8169L3.17797 14.9378C3.01464 15.0279 2.81767 15.0092 2.67159 14.8897C2.52551 14.7703 2.45629 14.5713 2.49363 14.3782L3.1781 9.88591C3.20473 9.71503 3.15441 9.5407 3.04245 9.41598L0.143006 6.23457C0.0135223 6.09335 -0.0331776 5.88708 0.021472 5.69775C0.0761216 5.50842 0.223264 5.36672 0.404403 5.32898L4.41134 4.67356C4.5674 4.64645 4.7006 4.53752 4.76646 4.38313L6.55842 0.295954C6.63243 0.11605 6.79828 0 6.98137 0C7.16445 0 7.3303 0.11605 7.40431 0.295954Z" fill="#FFA800"/>
<path fill-rule="evenodd" clip-rule="evenodd" d="M4.12823 10.0531C4.20403 9.55716 4.05624 9.05204 3.72998 8.6919L1.46133 6.20255L4.55633 5.69643C5.02931 5.61759 5.43465 5.29081 5.63729 4.82497L6.98131 1.75928L8.32485 4.82408C8.52747 5.29031 8.933 5.61743 9.40627 5.69641L12.5013 6.20253L10.2322 8.69239C9.90608 9.05269 9.75848 9.55783 9.83439 10.0537L10.3603 13.5057L7.66543 11.9109C7.23973 11.6584 6.72321 11.6583 6.29742 11.9106L3.60232 13.5057L4.12823 10.0531Z" fill="#FFA800"/>
</g>
<g clip-path="url(#clip1_1_853)">
<path fill-rule="evenodd" clip-rule="evenodd" d="M24.4697 0.295954L26.2617 4.38313C26.3276 4.53752 26.4608 4.64645 26.6168 4.67356L30.6238 5.32897C30.8049 5.3667 30.9521 5.50841 31.0067 5.69774C31.0614 5.88707 31.0146 6.09335 30.8852 6.23457L27.9857 9.41598C27.8738 9.5407 27.8234 9.71503 27.8501 9.88591L28.5345 14.3782C28.5719 14.5713 28.5027 14.7703 28.3566 14.8897C28.2105 15.0092 28.0135 15.0279 27.8502 14.9378L24.2663 12.8169C24.1297 12.7356 23.9638 12.7356 23.8273 12.8169L20.2434 14.9378C20.0801 15.0279 19.8831 15.0092 19.737 14.8897C19.5909 14.7703 19.5217 14.5713 19.5591 14.3782L20.2435 9.88591C20.2702 9.71503 20.2198 9.5407 20.1079 9.41598L17.2084 6.23457C17.079 6.09335 17.0323 5.88708 17.0869 5.69775C17.1416 5.50842 17.2887 5.36672 17.4698 5.32898L21.4768 4.67356C21.6328 4.64645 21.766 4.53752 21.8319 4.38313L23.6238 0.295954C23.6979 0.11605 23.8637 0 24.0468 0C24.2299 0 24.3957 0.11605 24.4697 0.295954Z" fill="#FFA800"/>
<path fill-rule="evenodd" clip-rule="evenodd" d="M21.1937 10.0531C21.2695 9.55716 21.1217 9.05204 20.7954 8.6919L18.5268 6.20255L21.6218 5.69643C22.0947 5.61759 22.5001 5.29081 22.7027 4.82497L24.0467 1.75928L25.3903 4.82408C25.5929 5.29031 25.9984 5.61743 26.4717 5.69641L29.5667 6.20253L27.2976 8.69239C26.9715 9.05269 26.8239 9.55783 26.8998 10.0537L27.4257 13.5057L24.7309 11.9109C24.3052 11.6584 23.7886 11.6583 23.3629 11.9106L20.6678 13.5057L21.1937 10.0531Z" fill="#FFA800"/>
</g>
<g clip-path="url(#clip2_1_853)">
<path fill-rule="evenodd" clip-rule="evenodd" d="M41.8995 0.295954L43.5919 4.38313C43.6541 4.53752 43.7799 4.64645 43.9273 4.67356L47.7116 5.32897C47.8827 5.3667 48.0216 5.50841 48.0733 5.69774C48.1249 5.88707 48.0808 6.09335 47.9585 6.23457L45.2201 9.41598C45.1144 9.5407 45.0668 9.71503 45.092 9.88591L45.7384 14.3782C45.7737 14.5713 45.7083 14.7703 45.5703 14.8897C45.4324 15.0092 45.2464 15.0279 45.0921 14.9378L41.7073 12.8169C41.5783 12.7356 41.4217 12.7356 41.2927 12.8169L37.9079 14.9378C37.7537 15.0279 37.5676 15.0092 37.4297 14.8897C37.2917 14.7703 37.2263 14.5713 37.2616 14.3782L37.908 9.88591C37.9332 9.71503 37.8857 9.5407 37.7799 9.41598L35.0416 6.23457C34.9193 6.09335 34.8752 5.88708 34.9268 5.69775C34.9784 5.50842 35.1174 5.36672 35.2884 5.32898L39.0728 4.67356C39.2202 4.64645 39.3459 4.53752 39.4082 4.38313L41.1006 0.295954C41.1705 0.11605 41.3271 0 41.5 0C41.6729 0 41.8296 0.11605 41.8995 0.295954Z" fill="#FFA800"/>
<path fill-rule="evenodd" clip-rule="evenodd" d="M38.8054 10.0531C38.877 9.55716 38.7375 9.05204 38.4293 8.6919L36.2867 6.20255L39.2098 5.69643C39.6565 5.61759 40.0393 5.29081 40.2307 4.82497L41.5 1.75928L42.7689 4.82408C42.9603 5.29031 43.3433 5.61743 43.7903 5.69641L46.7133 6.20253L44.5703 8.69239C44.2623 9.05269 44.1229 9.55783 44.1946 10.0537L44.6913 13.5057L42.1461 11.9109C41.7441 11.6584 41.2563 11.6583 40.8541 11.9106L38.3088 13.5057L38.8054 10.0531Z" fill="#FFA800"/>
</g>
<g clip-path="url(#clip3_1_853)">
<path fill-rule="evenodd" clip-rule="evenodd" d="M59.3763 0.295954L61.1682 4.38313C61.2341 4.53752 61.3673 4.64645 61.5233 4.67356L65.5303 5.32897C65.7114 5.3667 65.8586 5.50841 65.9132 5.69774C65.9679 5.88707 65.9212 6.09335 65.7917 6.23457L62.8922 9.41598C62.7803 9.5407 62.73 9.71503 62.7566 9.88591L63.4411 14.3782C63.4784 14.5713 63.4092 14.7703 63.2631 14.8897C63.117 15.0092 62.92 15.0279 62.7567 14.9378L59.1728 12.8169C59.0363 12.7356 58.8704 12.7356 58.7338 12.8169L55.1499 14.9378C54.9866 15.0279 54.7896 15.0092 54.6435 14.8897C54.4975 14.7703 54.4282 14.5713 54.4656 14.3782L55.1501 9.88591C55.1767 9.71503 55.1264 9.5407 55.0144 9.41598L52.115 6.23457C51.9855 6.09335 51.9388 5.88708 51.9934 5.69775C52.0481 5.50842 52.1952 5.36672 52.3764 5.32898L56.3833 4.67356C56.5394 4.64645 56.6726 4.53752 56.7384 4.38313L58.5304 0.295954C58.6044 0.11605 58.7702 0 58.9533 0C59.1364 0 59.3023 0.11605 59.3763 0.295954Z" fill="#FFA800"/>
<path fill-rule="evenodd" clip-rule="evenodd" d="M56.1002 10.0531C56.176 9.55716 56.0282 9.05204 55.7019 8.6919L53.4333 6.20255L56.5283 5.69643C57.0013 5.61759 57.4066 5.29081 57.6092 4.82497L58.9533 1.75928L60.2968 4.82408C60.4994 5.29031 60.905 5.61743 61.3782 5.69641L64.4732 6.20253L62.2041 8.69239C61.878 9.05269 61.7304 9.55783 61.8063 10.0537L62.3322 13.5057L59.6374 11.9109C59.2117 11.6584 58.6952 11.6583 58.2694 11.9106L55.5743 13.5057L56.1002 10.0531Z" fill="#FFA800"/>
</g>
<g clip-path="url(#clip4_1_853)">
<path fill-rule="evenodd" clip-rule="evenodd" d="M76.4417 0.295954L78.2337 4.38313C78.2995 4.53752 78.4327 4.64645 78.5888 4.67356L82.5957 5.32897C82.7769 5.3667 82.924 5.50841 82.9787 5.69774C83.0333 5.88707 82.9866 6.09335 82.8571 6.23457L79.9577 9.41598C79.8457 9.5407 79.7954 9.71503 79.822 9.88591L80.5065 14.3782C80.5438 14.5713 80.4746 14.7703 80.3285 14.8897C80.1824 15.0092 79.9855 15.0279 79.8221 14.9378L76.2382 12.8169C76.1017 12.7356 75.9358 12.7356 75.7993 12.8169L72.2154 14.9378C72.052 15.0279 71.8551 15.0092 71.709 14.8897C71.5629 14.7703 71.4937 14.5713 71.531 14.3782L72.2155 9.88591C72.2421 9.71503 72.1918 9.5407 72.0798 9.41598L69.1804 6.23457C69.0509 6.09335 69.0042 5.88708 69.0589 5.69775C69.1135 5.50842 69.2606 5.36672 69.4418 5.32898L73.4487 4.67356C73.6048 4.64645 73.738 4.53752 73.8038 4.38313L75.5958 0.295954C75.6698 0.11605 75.8357 0 76.0188 0C76.2018 0 76.3677 0.11605 76.4417 0.295954Z" fill="#FFA800"/>
<path fill-rule="evenodd" clip-rule="evenodd" d="M73.1656 10.0531C73.2414 9.55716 73.0936 9.05204 72.7674 8.6919L70.4987 6.20255L73.5937 5.69643C74.0667 5.61759 74.472 5.29081 74.6747 4.82497L76.0187 1.75928L77.3622 4.82408C77.5649 5.29031 77.9704 5.61743 78.4437 5.69641L81.5387 6.20253L79.2695 8.69239C78.9435 9.05269 78.7959 9.55783 78.8718 10.0537L79.3977 13.5057L76.7028 11.9109C76.2771 11.6584 75.7606 11.6583 75.3348 11.9106L72.6397 13.5057L73.1656 10.0531Z" fill="#FFA800"/>
</g>
<defs>
<clipPath id="clip0_1_853">
<rect width="13.9626" height="15" fill="white"/>
</clipPath>
<clipPath id="clip1_1_853">
<rect width="13.9626" height="15" fill="white" transform="translate(17.0654)"/>
</clipPath>
<clipPath id="clip2_1_853">
<rect width="13.1869" height="15" fill="white" transform="translate(34.9066)"/>
</clipPath>
<clipPath id="clip3_1_853">
<rect width="13.9626" height="15" fill="white" transform="translate(51.972)"/>
</clipPath>
<clipPath id="clip4_1_853">
<rect width="13.9626" height="15" fill="white" transform="translate(69.0374)"/>
</clipPath>
</defs>
</svg>
