<svg width="83" height="15" viewBox="0 0 83 15" fill="none" xmlns="http://www.w3.org/2000/svg">
<g clip-path="url(#clip0_1_757)">
<path fill-rule="evenodd" clip-rule="evenodd" d="M7.40431 0.295954L9.19626 4.38313C9.26213 4.53752 9.39533 4.64645 9.55139 4.67356L13.5583 5.32897C13.7395 5.3667 13.8866 5.50841 13.9413 5.69774C13.9959 5.88707 13.9492 6.09335 13.8197 6.23457L10.9203 9.41598C10.8083 9.5407 10.758 9.71503 10.7846 9.88591L11.4691 14.3782C11.5064 14.5713 11.4372 14.7703 11.2911 14.8897C11.1451 15.0092 10.9481 15.0279 10.7848 14.9378L7.20084 12.8169C7.06431 12.7356 6.89841 12.7356 6.76188 12.8169L3.17797 14.9378C3.01463 15.0279 2.81767 15.0092 2.67159 14.8897C2.52551 14.7703 2.45628 14.5713 2.49362 14.3782L3.17809 9.88591C3.20472 9.71503 3.1544 9.5407 3.04244 9.41598L0.142999 6.23457C0.0135147 6.09335 -0.0331852 5.88708 0.0214644 5.69775C0.076114 5.50842 0.223256 5.36672 0.404396 5.32898L4.41133 4.67356C4.56739 4.64645 4.70059 4.53752 4.76645 4.38313L6.55841 0.295954C6.63242 0.11605 6.79827 0 6.98136 0C7.16445 0 7.33029 0.11605 7.40431 0.295954Z" fill="#FFA800"/>
<path fill-rule="evenodd" clip-rule="evenodd" d="M4.12823 10.0531C4.20403 9.55716 4.05624 9.05204 3.72998 8.6919L1.46133 6.20255L4.55633 5.69643C5.02931 5.61759 5.43465 5.29081 5.63729 4.82497L6.98131 1.75928L8.32485 4.82408C8.52747 5.29031 8.933 5.61743 9.40627 5.69641L12.5013 6.20253L10.2322 8.69239C9.90608 9.05269 9.75848 9.55783 9.83439 10.0537L10.3603 13.5057L7.66543 11.9109C7.23973 11.6584 6.72321 11.6583 6.29742 11.9106L3.60232 13.5057L4.12823 10.0531Z" fill="#FFA800"/>
</g>
<g clip-path="url(#clip1_1_757)">
<path fill-rule="evenodd" clip-rule="evenodd" d="M24.4697 0.295954L26.2617 4.38313C26.3276 4.53752 26.4607 4.64645 26.6168 4.67356L30.6237 5.32897C30.8049 5.3667 30.952 5.50841 31.0067 5.69774C31.0613 5.88707 31.0146 6.09335 30.8851 6.23457L27.9857 9.41598C27.8737 9.5407 27.8234 9.71503 27.85 9.88591L28.5345 14.3782C28.5719 14.5713 28.5026 14.7703 28.3566 14.8897C28.2105 15.0092 28.0135 15.0279 27.8502 14.9378L24.2663 12.8169C24.1297 12.7356 23.9638 12.7356 23.8273 12.8169L20.2434 14.9378C20.0801 15.0279 19.8831 15.0092 19.737 14.8897C19.5909 14.7703 19.5217 14.5713 19.559 14.3782L20.2435 9.88591C20.2701 9.71503 20.2198 9.5407 20.1079 9.41598L17.2084 6.23457C17.0789 6.09335 17.0322 5.88708 17.0869 5.69775C17.1415 5.50842 17.2887 5.36672 17.4698 5.32898L21.4768 4.67356C21.6328 4.64645 21.766 4.53752 21.8319 4.38313L23.6238 0.295954C23.6978 0.11605 23.8637 0 24.0468 0C24.2299 0 24.3957 0.11605 24.4697 0.295954Z" fill="#FFA800"/>
<path fill-rule="evenodd" clip-rule="evenodd" d="M21.1936 10.0531C21.2694 9.55716 21.1217 9.05204 20.7954 8.6919L18.5268 6.20255L21.6218 5.69643C22.0947 5.61759 22.5001 5.29081 22.7027 4.82497L24.0467 1.75928L25.3903 4.82408C25.5929 5.29031 25.9984 5.61743 26.4717 5.69641L29.5667 6.20253L27.2976 8.69239C26.9715 9.05269 26.8239 9.55783 26.8998 10.0537L27.4257 13.5057L24.7309 11.9109C24.3052 11.6584 23.7886 11.6583 23.3628 11.9106L20.6677 13.5057L21.1936 10.0531Z" fill="#FFA800"/>
</g>
<g clip-path="url(#clip2_1_757)">
<path fill-rule="evenodd" clip-rule="evenodd" d="M41.8994 0.295954L43.5918 4.38313C43.654 4.53752 43.7798 4.64645 43.9272 4.67356L47.7116 5.32897C47.8826 5.3667 48.0216 5.50841 48.0732 5.69774C48.1248 5.88707 48.0807 6.09335 47.9584 6.23457L45.2201 9.41598C45.1143 9.5407 45.0668 9.71503 45.092 9.88591L45.7384 14.3782C45.7737 14.5713 45.7083 14.7703 45.5703 14.8897C45.4324 15.0092 45.2463 15.0279 45.0921 14.9378L41.7073 12.8169C41.5783 12.7356 41.4216 12.7356 41.2927 12.8169L37.9079 14.9378C37.7536 15.0279 37.5676 15.0092 37.4296 14.8897C37.2917 14.7703 37.2263 14.5713 37.2616 14.3782L37.908 9.88591C37.9332 9.71503 37.8856 9.5407 37.7799 9.41598L35.0415 6.23457C34.9192 6.09335 34.8751 5.88708 34.9267 5.69775C34.9784 5.50842 35.1173 5.36672 35.2884 5.32898L39.0727 4.67356C39.2201 4.64645 39.3459 4.53752 39.4081 4.38313L41.1005 0.295954C41.1704 0.11605 41.3271 0 41.5 0C41.6729 0 41.8295 0.11605 41.8994 0.295954Z" fill="#FFA800"/>
<path fill-rule="evenodd" clip-rule="evenodd" d="M38.8054 10.0531C38.877 9.55716 38.7374 9.05204 38.4293 8.6919L36.2867 6.20255L39.2097 5.69643C39.6564 5.61759 40.0393 5.29081 40.2306 4.82497L41.5 1.75928L42.7689 4.82408C42.9603 5.29031 43.3433 5.61743 43.7902 5.69641L46.7133 6.20253L44.5702 8.69239C44.2623 9.05269 44.1229 9.55783 44.1946 10.0537L44.6913 13.5057L42.1461 11.9109C41.7441 11.6584 41.2562 11.6583 40.8541 11.9106L38.3087 13.5057L38.8054 10.0531Z" fill="#FFA800"/>
</g>
<g clip-path="url(#clip3_1_757)">
<path fill-rule="evenodd" clip-rule="evenodd" d="M59.3763 0.295954L61.1682 4.38313C61.2341 4.53752 61.3673 4.64645 61.5233 4.67356L65.5303 5.32897C65.7114 5.3667 65.8586 5.50841 65.9132 5.69774C65.9679 5.88707 65.9212 6.09335 65.7917 6.23457L62.8922 9.41598C62.7803 9.5407 62.7299 9.71503 62.7566 9.88591L63.441 14.3782C63.4784 14.5713 63.4092 14.7703 63.2631 14.8897C63.117 15.0092 62.92 15.0279 62.7567 14.9378L59.1728 12.8169C59.0363 12.7356 58.8704 12.7356 58.7338 12.8169L55.1499 14.9378C54.9866 15.0279 54.7896 15.0092 54.6435 14.8897C54.4975 14.7703 54.4282 14.5713 54.4656 14.3782L55.15 9.88591C55.1767 9.71503 55.1263 9.5407 55.0144 9.41598L52.1149 6.23457C51.9855 6.09335 51.9388 5.88708 51.9934 5.69775C52.0481 5.50842 52.1952 5.36672 52.3763 5.32898L56.3833 4.67356C56.5393 4.64645 56.6725 4.53752 56.7384 4.38313L58.5304 0.295954C58.6044 0.11605 58.7702 0 58.9533 0C59.1364 0 59.3022 0.11605 59.3763 0.295954Z" fill="#FFA800"/>
<path fill-rule="evenodd" clip-rule="evenodd" d="M56.1002 10.0531C56.176 9.55716 56.0282 9.05204 55.7019 8.6919L53.4333 6.20255L56.5283 5.69643C57.0013 5.61759 57.4066 5.29081 57.6092 4.82497L58.9533 1.75928L60.2968 4.82408C60.4994 5.29031 60.905 5.61743 61.3782 5.69641L64.4732 6.20253L62.2041 8.69239C61.878 9.05269 61.7304 9.55783 61.8063 10.0537L62.3322 13.5057L59.6374 11.9109C59.2117 11.6584 58.6952 11.6583 58.2694 11.9106L55.5743 13.5057L56.1002 10.0531Z" fill="#FFA800"/>
</g>
<g clip-path="url(#clip4_1_757)">
<path d="M74.2626 4.58202L76.0187 0.576493L77.7749 4.58194C77.9029 4.87975 78.1696 5.10823 78.5032 5.16618L78.5032 5.16621L78.508 5.167L82.4892 5.81819C82.4917 5.82108 82.4955 5.82683 82.4983 5.8364C82.5017 5.84832 82.502 5.86149 82.4993 5.87379C82.4965 5.88609 82.4915 5.8934 82.4886 5.89665L82.4875 5.89777L79.5881 9.07918L79.5881 9.07917L79.5856 9.08197C79.3699 9.32222 79.2793 9.64843 79.3278 9.96188C79.3279 9.96222 79.3279 9.96257 79.328 9.96291L80.0122 14.4535L80.0137 14.4633L80.0152 14.4711L76.4941 12.3873C76.4939 12.3872 76.4936 12.3871 76.4934 12.3869C76.1996 12.2123 75.838 12.2122 75.5442 12.3869C75.5439 12.387 75.5437 12.3872 75.5434 12.3873L72.0223 14.4711L72.0238 14.4633L72.0253 14.4535L72.7095 9.96291C72.7096 9.96259 72.7096 9.96227 72.7097 9.96195C72.7582 9.64847 72.6676 9.32224 72.4519 9.08197L72.4519 9.08196L72.4494 9.07918L69.5499 5.89777L69.5489 5.89666C69.5459 5.89341 69.541 5.8861 69.5382 5.8738C69.5354 5.8615 69.5358 5.84833 69.5392 5.83641C69.542 5.82685 69.5458 5.8211 69.5483 5.81821L73.5294 5.167L73.5294 5.16703L73.5343 5.16618C73.8679 5.10823 74.1345 4.8798 74.2626 4.58202Z" fill="white" stroke="#FFA800"/>
<path d="M75.0799 11.4805L73.2929 12.5381L73.6599 10.1286C73.6599 10.1285 73.6599 10.1284 73.6599 10.1284C73.7575 9.48939 73.5688 8.83188 73.1379 8.35621L73.1369 8.35511L71.4893 6.5472L73.6744 6.18988L73.6759 6.18963C74.3273 6.08105 74.8673 5.63488 75.1329 5.02513C75.133 5.02489 75.1331 5.02465 75.1332 5.02441L76.0187 3.00459L76.9037 5.02337C76.9038 5.02365 76.9039 5.02393 76.904 5.0242C77.1695 5.63432 77.7097 6.08084 78.3614 6.18959L78.363 6.18986L80.5481 6.54718L78.9 8.35559L78.8988 8.35688C78.4681 8.83278 78.2797 9.49039 78.3775 10.1294L78.7445 12.5381L76.9579 11.4808C76.9578 11.4808 76.9577 11.4807 76.9576 11.4807C76.9575 11.4806 76.9575 11.4806 76.9575 11.4806C76.3747 11.1352 75.663 11.1351 75.0801 11.4803C75.0801 11.4804 75.08 11.4804 75.0799 11.4805Z" fill="white" stroke="#FFA800"/>
</g>
<defs>
<clipPath id="clip0_1_757">
<rect width="13.9626" height="15" fill="white"/>
</clipPath>
<clipPath id="clip1_1_757">
<rect width="13.9626" height="15" fill="white" transform="translate(17.0654)"/>
</clipPath>
<clipPath id="clip2_1_757">
<rect width="13.1869" height="15" fill="white" transform="translate(34.9065)"/>
</clipPath>
<clipPath id="clip3_1_757">
<rect width="13.9626" height="15" fill="white" transform="translate(51.972)"/>
</clipPath>
<clipPath id="clip4_1_757">
<rect width="13.9626" height="15" fill="white" transform="translate(69.0374)"/>
</clipPath>
</defs>
</svg>
