<svg width="15" height="12" viewBox="0 0 15 12" fill="none" xmlns="http://www.w3.org/2000/svg">
<path d="M7.30113 3.02607L2.5002 6.98019V11.2478C2.5002 11.3583 2.54409 11.4643 2.62223 11.5424C2.70036 11.6206 2.80633 11.6645 2.91683 11.6645L5.83484 11.6569C5.94497 11.6564 6.05041 11.6122 6.1281 11.5342C6.20578 11.4561 6.24939 11.3504 6.24939 11.2403V8.74802C6.24939 8.63753 6.29328 8.53155 6.37142 8.45342C6.44955 8.37528 6.55552 8.33139 6.66602 8.33139H8.33256C8.44306 8.33139 8.54903 8.37528 8.62717 8.45342C8.7053 8.53155 8.7492 8.63753 8.7492 8.74802V11.2385C8.74902 11.2933 8.75967 11.3476 8.78053 11.3983C8.8014 11.449 8.83206 11.4951 8.87076 11.5339C8.90947 11.5727 8.95546 11.6035 9.00609 11.6246C9.05672 11.6456 9.11101 11.6564 9.16583 11.6564L12.0828 11.6645C12.1933 11.6645 12.2993 11.6206 12.3774 11.5424C12.4555 11.4643 12.4994 11.3583 12.4994 11.2478V6.97733L7.69954 3.02607C7.64311 2.98058 7.57281 2.95578 7.50033 2.95578C7.42785 2.95578 7.35756 2.98058 7.30113 3.02607ZM14.8847 5.71362L12.7077 3.91923V0.312476C12.7077 0.229602 12.6748 0.150123 12.6162 0.0915221C12.5576 0.0329215 12.4781 0 12.3953 0H10.937C10.8542 0 10.7747 0.0329215 10.7161 0.0915221C10.6575 0.150123 10.6246 0.229602 10.6246 0.312476V2.20322L8.29324 0.285134C8.06951 0.101028 7.78877 0.00036803 7.49903 0.00036803C7.20929 0.00036803 6.92855 0.101028 6.70482 0.285134L0.113402 5.71362C0.081761 5.73977 0.0555827 5.7719 0.0363633 5.80818C0.017144 5.84445 0.00526021 5.88416 0.00139108 5.92502C-0.00247805 5.96589 0.00174327 6.00712 0.0138138 6.04636C0.0258844 6.08559 0.0455677 6.12207 0.0717389 6.15369L0.73575 6.96092C0.76185 6.99266 0.793953 7.01893 0.830222 7.03825C0.86649 7.05756 0.906211 7.06953 0.947112 7.07347C0.988013 7.07742 1.02929 7.07325 1.06858 7.06122C1.10787 7.04919 1.1444 7.02953 1.17608 7.00337L7.30113 1.95844C7.35756 1.91296 7.42785 1.88815 7.50033 1.88815C7.57281 1.88815 7.64311 1.91296 7.69954 1.95844L13.8248 7.00337C13.8565 7.02954 13.8929 7.04922 13.9322 7.06129C13.9714 7.07336 14.0126 7.07758 14.0535 7.07371C14.0944 7.06985 14.1341 7.05796 14.1704 7.03874C14.2066 7.01952 14.2388 6.99334 14.2649 6.9617L14.9289 6.15447C14.9551 6.12266 14.9747 6.086 14.9866 6.0466C14.9985 6.00719 15.0026 5.96581 14.9984 5.92485C14.9943 5.88388 14.9822 5.84413 14.9626 5.80788C14.9431 5.77163 14.9166 5.7396 14.8847 5.71362Z" fill="black"/>
</svg>
