<svg width="20" height="20" viewBox="0 0 20 20" fill="none" xmlns="http://www.w3.org/2000/svg">
<path d="M17.917 1.66136C17.43 1.13439 16.8518 0.716429 16.2155 0.431365C15.5791 0.146301 14.8971 -0.000279448 14.2084 3.99952e-07C13.5197 0.000280248 12.8378 0.147415 12.2016 0.432996C11.5655 0.718577 10.9876 1.13701 10.5009 1.66437L9.8657 2.36011L9.23576 1.66588L9.23166 1.66144C8.7449 1.13472 8.16702 0.716905 7.53103 0.431846C6.89504 0.146786 6.21339 6.75113e-05 5.525 6.75113e-05C4.8366 6.75113e-05 4.15495 0.146786 3.51896 0.431846C2.88297 0.716905 2.30509 1.13472 1.81833 1.66144L1.53534 1.96766C0.552278 3.03141 0 4.47416 0 5.97853C0 7.4829 0.552278 8.92566 1.53534 9.98941L9.00409 18.0711L9.84752 19.0273L9.86763 19.0055L9.88945 19.0291L10.6797 18.1269L18.2 9.98928C19.1816 8.92468 19.7328 7.48224 19.7328 5.9784C19.7328 4.47456 19.1816 3.03212 18.2 1.96752L17.917 1.66136ZM17.2731 8.98658L9.86763 17.0001L2.46195 8.98658C1.72465 8.18876 1.31045 7.1067 1.31045 5.97842C1.31045 4.85015 1.72465 3.76809 2.46195 2.97027L2.74497 2.66406C3.48191 1.86664 4.4813 1.41847 5.52348 1.41805C6.56566 1.41762 7.56536 1.86498 8.30285 2.6618L9.86287 4.38062L11.4303 2.66406C11.7954 2.26902 12.2288 1.95565 12.7058 1.74186C13.1828 1.52806 13.694 1.41803 14.2103 1.41803C14.7266 1.41803 15.2379 1.52806 15.7148 1.74186C16.1918 1.95565 16.6252 2.26902 16.9903 2.66406L17.2733 2.97023C18.0095 3.7687 18.4229 4.85055 18.4229 5.97844C18.4229 7.10633 18.0094 8.18815 17.2731 8.98658Z" fill="#707173"/>
</svg>
