<svg width="25" height="22" viewBox="0 0 25 22" fill="none" xmlns="http://www.w3.org/2000/svg">
<path d="M12.2043 2.74215C12.9447 2.74215 13.6685 2.94318 14.2842 3.31982C14.8998 3.69645 15.3797 4.23178 15.663 4.8581C15.9464 5.48442 16.0205 6.17361 15.8761 6.83851C15.7316 7.50341 15.3751 8.11416 14.8515 8.59352C14.3279 9.07289 13.6609 9.39934 12.9346 9.5316C12.2084 9.66385 11.4557 9.59597 10.7716 9.33654C10.0875 9.07711 9.50282 8.63778 9.09145 8.07411C8.68008 7.51043 8.46051 6.84773 8.46051 6.16981C8.46051 5.26074 8.85494 4.3889 9.55703 3.74609C10.2591 3.10328 11.2114 2.74215 12.2043 2.74215ZM12.2043 1.37109C11.1676 1.37109 10.1543 1.65253 9.29238 2.17982C8.43046 2.70711 7.75868 3.45657 7.36198 4.33342C6.96528 5.21027 6.86149 6.17513 7.06372 7.10599C7.26596 8.03685 7.76514 8.89189 8.49814 9.56301C9.23114 10.2341 10.165 10.6912 11.1817 10.8763C12.1985 11.0615 13.2523 10.9664 14.21 10.6032C15.1677 10.24 15.9863 9.62497 16.5622 8.83583C17.1381 8.04668 17.4455 7.1189 17.4455 6.16981C17.4455 4.89711 16.8933 3.67654 15.9104 2.7766C14.9275 1.87667 13.5943 1.37109 12.2043 1.37109Z" fill="#707173"/>
<path d="M19.6917 20.566H18.1942V17.1383C18.1942 16.6882 18.0974 16.2425 17.9093 15.8266C17.7211 15.4107 17.4454 15.0329 17.0977 14.7146C16.7501 14.3963 16.3374 14.1438 15.8832 13.9716C15.4289 13.7993 14.9421 13.7107 14.4505 13.7107H9.95799C8.96508 13.7107 8.01284 14.0718 7.31075 14.7146C6.60867 15.3574 6.21424 16.2292 6.21424 17.1383V20.566H4.71674V17.1383C4.71674 15.8656 5.26894 14.645 6.25186 13.7451C7.23479 12.8452 8.56792 12.3396 9.95799 12.3396H14.4505C15.8406 12.3396 17.1737 12.8452 18.1566 13.7451C19.1395 14.645 19.6917 15.8656 19.6917 17.1383V20.566Z" fill="#707173"/>
</svg>
