<svg width="15" height="13" viewBox="0 0 15 13" fill="none" xmlns="http://www.w3.org/2000/svg">
<path d="M7.5 0C6.01664 0 4.56659 0.356921 3.33323 1.02563C2.09986 1.69433 1.13856 2.64479 0.570907 3.75681C0.00324963 4.86883 -0.145275 6.09246 0.144114 7.27298C0.433503 8.45349 1.14781 9.53786 2.1967 10.389C3.2456 11.2401 4.58197 11.8197 6.03682 12.0545C7.49168 12.2893 8.99968 12.1688 10.3701 11.7082C11.7406 11.2476 12.9119 10.4675 13.736 9.46675C14.5601 8.46596 15 7.28935 15 6.08571C14.9977 4.47224 14.2069 2.92538 12.8008 1.78448C11.3948 0.643584 9.48843 0.00182617 7.5 0ZM8.36539 8.8945C8.36539 9.01866 8.3046 9.13773 8.19641 9.22552C8.08822 9.31332 7.94147 9.36264 7.78846 9.36264C7.63545 9.36264 7.48871 9.31332 7.38052 9.22552C7.27232 9.13773 7.21154 9.01866 7.21154 8.8945V4.38548L6.37764 4.83641C6.31459 4.87059 6.24386 4.89436 6.16949 4.90635C6.09512 4.91833 6.01856 4.91831 5.9442 4.90627C5.86984 4.89423 5.79914 4.87042 5.73613 4.83619C5.67312 4.80196 5.61905 4.75799 5.577 4.70679C5.53495 4.65559 5.50575 4.59817 5.49107 4.53781C5.47639 4.47744 5.47652 4.41532 5.49145 4.355C5.50638 4.29468 5.53582 4.23734 5.57808 4.18626C5.62035 4.13517 5.67461 4.09135 5.73776 4.05729L7.46852 3.12143C7.55542 3.07445 7.65639 3.04749 7.76068 3.04341C7.86497 3.03934 7.96867 3.0583 8.06072 3.09829C8.15277 3.13827 8.22973 3.19777 8.28338 3.27045C8.33704 3.34313 8.36538 3.42627 8.36539 3.51099V8.8945Z" fill="#944848"/>
</svg>
