<svg width="34" height="25" viewBox="0 0 34 25" fill="none" xmlns="http://www.w3.org/2000/svg">
<path d="M30.4354 0H3.19996C1.69003 0 0.469604 1.1633 0.469604 2.59714V21.6429C0.469604 23.0767 1.69003 24.24 3.19996 24.24H30.4354C31.9453 24.24 33.1657 23.0767 33.1657 21.6429V2.59714C33.1657 1.1633 31.9453 0 30.4354 0ZM3.54054 2.59714H30.0948C30.2821 2.59714 30.4354 2.74323 30.4354 2.92179V5.19429H3.19996V2.92179C3.19996 2.74323 3.35322 2.59714 3.54054 2.59714ZM30.0948 21.6429H3.54054C3.35322 21.6429 3.19996 21.4968 3.19996 21.3182V12.12H30.4354V21.3182C30.4354 21.4968 30.2821 21.6429 30.0948 21.6429ZM11.3683 16.2321V18.3964C11.3683 18.7535 11.0618 19.0457 10.6871 19.0457H6.60013C6.22549 19.0457 5.91896 18.7535 5.91896 18.3964V16.2321C5.91896 15.875 6.22549 15.5829 6.60013 15.5829H10.6871C11.0618 15.5829 11.3683 15.875 11.3683 16.2321ZM22.267 16.2321V18.3964C22.267 18.7535 21.9605 19.0457 21.5859 19.0457H13.8659C13.4913 19.0457 13.1848 18.7535 13.1848 18.3964V16.2321C13.1848 15.875 13.4913 15.5829 13.8659 15.5829H21.5859C21.9605 15.5829 22.267 15.875 22.267 16.2321Z" fill="white"/>
</svg>
