<svg width="24" height="17" viewBox="0 0 24 17" fill="none" xmlns="http://www.w3.org/2000/svg">
<path d="M18.446 15.354C19.5107 15.354 20.3738 14.6417 20.3738 13.7632C20.3738 12.8846 19.5107 12.1724 18.446 12.1724C17.3813 12.1724 16.5182 12.8846 16.5182 13.7632C16.5182 14.6417 17.3813 15.354 18.446 15.354Z" stroke="#707173" stroke-width="2.87" stroke-miterlimit="10"/>
<path d="M9.77088 15.354C10.8356 15.354 11.6987 14.6417 11.6987 13.7632C11.6987 12.8846 10.8356 12.1724 9.77088 12.1724C8.70618 12.1724 7.84308 12.8846 7.84308 13.7632C7.84308 14.6417 8.70618 15.354 9.77088 15.354Z" stroke="#707173" stroke-width="2.87" stroke-miterlimit="10"/>
<path d="M21.9719 2.62742L19.6373 9.78604H7.63194L5.10459 1.44625C4.89061 0.738338 4.11949 0.241211 3.23463 0.241211H1.09574C0.563663 0.241211 0.131836 0.597551 0.131836 1.03661C0.131836 1.47568 0.563663 1.83202 1.09574 1.83202H3.23463L5.76101 10.1718C5.97596 10.8797 6.74708 11.3768 7.63194 11.3768H19.6373C20.5067 11.3768 21.2682 10.8964 21.4976 10.2044L24.0018 2.62742H21.9719Z" fill="#707173"/>
<path d="M13.6264 0.241211V5.01363" stroke="#707173" stroke-width="2.87" stroke-miterlimit="10"/>
<path d="M17.4821 4.21826L13.6265 7.39987L9.77087 4.21826H17.4821Z" fill="#707173"/>
</svg>
