<svg width="20" height="20" viewBox="0 0 20 20" fill="none" xmlns="http://www.w3.org/2000/svg">
<path d="M17.917 2.39427C17.43 1.8673 16.8518 1.44934 16.2155 1.16427C15.5791 0.879211 14.8971 0.732631 14.2084 0.732911C13.5197 0.73319 12.8378 0.880325 12.2016 1.16591C11.5655 1.45149 10.9876 1.86992 10.5009 2.39728L9.8657 3.09302L9.23576 2.39879L9.23166 2.39435C8.7449 1.86763 8.16702 1.44982 7.53103 1.16476C6.89504 0.879696 6.21339 0.732978 5.525 0.732978C4.8366 0.732978 4.15495 0.879696 3.51896 1.16476C2.88297 1.44982 2.30509 1.86763 1.81833 2.39435L1.53534 2.70057C0.552278 3.76432 0 5.20707 0 6.71144C0 8.21581 0.552278 9.65857 1.53534 10.7223L9.00409 18.804L9.84752 19.7602L9.86763 19.7384L9.88945 19.762L10.6797 18.8598L18.2 10.7222C19.1816 9.65759 19.7328 8.21515 19.7328 6.71131C19.7328 5.20747 19.1816 3.76503 18.2 2.70043L17.917 2.39427ZM17.2731 9.71949L9.86763 17.733L2.46195 9.71949C1.72465 8.92167 1.31045 7.83961 1.31045 6.71133C1.31045 5.58306 1.72465 4.501 2.46195 3.70318L2.74497 3.39697C3.48191 2.59955 4.4813 2.15138 5.52348 2.15096C6.56566 2.15053 7.56536 2.59789 8.30285 3.39471L9.86287 5.11353L11.4303 3.39697C11.7954 3.00193 12.2288 2.68856 12.7058 2.47477C13.1828 2.26097 13.694 2.15094 14.2103 2.15094C14.7266 2.15094 15.2379 2.26097 15.7148 2.47477C16.1918 2.68856 16.6252 3.00193 16.9903 3.39697L17.2733 3.70314C18.0095 4.50161 18.4229 5.58346 18.4229 6.71135C18.4229 7.83924 18.0094 8.92106 17.2731 9.71949Z" fill="#944848"/>
</svg>
