<svg width="19" height="18" viewBox="0 0 19 18" fill="none" xmlns="http://www.w3.org/2000/svg">
<path d="M18.1711 16.1356L14.8112 12.7775C15.8953 11.3931 16.4835 9.68349 16.4813 7.92355C16.4813 6.35618 16.0176 4.824 15.149 3.52078C14.2803 2.21756 13.0456 1.20183 11.6011 0.60202C10.1566 0.00221295 8.56707 -0.154724 7.03356 0.151055C5.50006 0.456834 4.09144 1.21159 2.98585 2.31989C1.88025 3.42819 1.12733 4.84025 0.822299 6.3775C0.517266 7.91476 0.67382 9.50816 1.27216 10.9562C1.87051 12.4043 2.88377 13.642 4.18381 14.5127C5.48385 15.3835 7.01229 15.8483 8.57583 15.8483C10.3315 15.8505 12.0369 15.2609 13.4179 14.1742L16.7678 17.5422C16.8597 17.6351 16.969 17.7088 17.0894 17.7591C17.2098 17.8094 17.339 17.8352 17.4695 17.8352C17.5999 17.8352 17.7291 17.8094 17.8495 17.7591C17.9699 17.7088 18.0792 17.6351 18.1711 17.5422C18.2637 17.4501 18.3372 17.3406 18.3874 17.2199C18.4375 17.0992 18.4634 16.9697 18.4634 16.8389C18.4634 16.7081 18.4375 16.5787 18.3874 16.4579C18.3372 16.3372 18.2637 16.2277 18.1711 16.1356ZM2.64676 7.92355C2.64676 6.74802 2.99449 5.59889 3.64599 4.62148C4.29748 3.64406 5.22348 2.88226 6.30688 2.4324C7.39027 1.98255 8.58241 1.86484 9.73254 2.09418C10.8827 2.32351 11.9391 2.88958 12.7683 3.72081C13.5975 4.55203 14.1622 5.61107 14.391 6.76401C14.6198 7.91695 14.5023 9.11201 14.0536 10.1981C13.6048 11.2841 12.8449 12.2124 11.8699 12.8654C10.8948 13.5185 9.7485 13.8671 8.57583 13.8671C7.00335 13.8671 5.49526 13.2409 4.38334 12.1263C3.27143 11.0117 2.64676 9.49988 2.64676 7.92355Z" fill="#707173"/>
</svg>
