<svg width="19" height="21" viewBox="0 0 19 21" fill="none" xmlns="http://www.w3.org/2000/svg">
<path d="M0.587311 13.4601C0.298458 13.7692 0.131125 14.1926 0.122071 14.6375C0.113016 15.0823 0.26298 15.5122 0.539021 15.8327L4.32231 20.2304C4.59951 20.5494 4.97864 20.734 5.37813 20.7445C5.77802 20.7522 6.16499 20.5829 6.45399 20.2737L17.7957 8.16753C18.0855 7.85677 18.2533 7.43142 18.2623 6.98463C18.2714 6.53785 18.1211 6.10602 17.8442 5.78373L14.0507 1.396C13.9144 1.23629 13.751 1.10837 13.5698 1.01966C13.3886 0.93094 13.1932 0.883182 12.9949 0.879147C12.7967 0.875112 12.5995 0.91488 12.4148 0.996149C12.2301 1.07742 12.0616 1.19858 11.919 1.35261L0.587311 13.4601ZM4.16151 14.7869C4.20718 14.8403 4.26194 14.883 4.32262 14.9127C4.38331 14.9423 4.44872 14.9583 4.51509 14.9597C4.58146 14.961 4.64747 14.9477 4.70932 14.9205C4.77116 14.8934 4.82761 14.8529 4.87542 14.8014C4.96722 14.6949 5.01985 14.5541 5.02284 14.4069C5.02584 14.2597 4.97899 14.1169 4.89159 14.0068C4.34104 13.3798 3.81036 12.7644 3.28015 12.1266L4.5655 10.7533L5.44996 11.7789C5.49424 11.8329 5.54797 11.8763 5.60788 11.9065C5.66779 11.9366 5.73263 11.9528 5.79846 11.9541C5.86429 11.9555 5.92974 11.9419 5.99083 11.9142C6.05191 11.8866 6.10736 11.8454 6.15381 11.7933C6.20199 11.7422 6.24065 11.6811 6.26756 11.6134C6.29448 11.5457 6.30911 11.4729 6.31061 11.399C6.31211 11.3251 6.30046 11.2517 6.27632 11.183C6.25219 11.1143 6.21605 11.0516 6.16998 10.9987C5.87494 10.668 5.58035 10.3149 5.29558 9.9732L6.58094 8.59984L8.20267 10.469C8.29424 10.5731 8.41918 10.6325 8.55033 10.6345C8.68148 10.6364 8.80824 10.5807 8.90306 10.4793C8.99789 10.378 9.05312 10.2393 9.05675 10.0934C9.06039 9.94744 9.01213 9.80605 8.92246 9.69994C8.38219 9.06196 7.85152 8.44656 7.31102 7.81977L8.59638 6.44642L9.48083 7.47207C9.57709 7.5757 9.70542 7.63437 9.83962 7.63612C9.97079 7.63967 10.0982 7.58601 10.1947 7.4866C10.289 7.38159 10.3433 7.24029 10.3463 7.09222C10.3493 6.94416 10.3008 6.80077 10.2109 6.692L9.32646 5.66635L10.6221 4.282L12.2335 6.16217C12.2794 6.2153 12.3342 6.25781 12.3948 6.2873C12.4555 6.31678 12.5209 6.33265 12.5871 6.334C12.6534 6.33535 12.7194 6.32215 12.7812 6.29516C12.843 6.26817 12.8995 6.22792 12.9474 6.1767C12.9954 6.12548 13.0338 6.06429 13.0606 5.99664C13.0873 5.92899 13.1019 5.85619 13.1034 5.78241C13.1049 5.70862 13.0933 5.63529 13.0693 5.56661C13.0454 5.49792 13.0094 5.43523 12.9636 5.3821C12.4131 4.7551 11.8824 4.13971 11.3522 3.50193L12.617 2.15055C12.713 2.04993 12.8406 1.99507 12.9721 1.99775C13.1037 2.00043 13.2289 2.06043 13.3208 2.16487L17.1141 6.5638C17.1602 6.61678 17.1964 6.67943 17.2205 6.74814C17.2446 6.81685 17.2563 6.89026 17.2548 6.96413C17.2533 7.038 17.2386 7.11087 17.2117 7.17854C17.1848 7.24621 17.1462 7.30734 17.098 7.3584L5.76628 19.4659C5.71835 19.519 5.6612 19.5606 5.59835 19.5882C5.53551 19.6158 5.4683 19.6288 5.40088 19.6264C5.33508 19.625 5.27029 19.6087 5.21039 19.5787C5.1505 19.5486 5.09675 19.5053 5.05237 19.4514L1.25905 15.0525C1.17095 14.945 1.12347 14.8037 1.12644 14.6579C1.12941 14.5121 1.18259 14.3729 1.27499 14.2691L2.55006 12.9067L4.16151 14.7869Z" fill="#944848"/>
</svg>
