<svg width="22" height="20" viewBox="0 0 22 20" fill="none" xmlns="http://www.w3.org/2000/svg">
<path d="M12.1111 4.80952L0.999999 4.80952M12.1111 4.80952C12.1111 6.91346 13.6035 8.61905 15.4444 8.61905C17.2854 8.61905 18.7778 6.91346 18.7778 4.80952M12.1111 4.80952C12.1111 2.70559 13.6035 1 15.4444 1C17.2854 1 18.7778 2.70559 18.7778 4.80952M18.7778 4.80952H21M9.88889 14.9683L21 14.9683M9.88889 14.9683C9.88889 12.8643 8.39656 11.1587 6.55555 11.1587C4.71455 11.1587 3.22222 12.8643 3.22222 14.9683M9.88889 14.9683C9.88889 17.0723 8.39656 18.7778 6.55555 18.7778C4.71455 18.7778 3.22222 17.0723 3.22222 14.9683M3.22222 14.9683H0.999999" stroke="#944848" stroke-width="1.33" stroke-linecap="round" stroke-linejoin="round"/>
</svg>
