<svg width="26" height="22" viewBox="0 0 26 22" fill="none" xmlns="http://www.w3.org/2000/svg">
<path d="M25.9283 10.5298L23.2404 3.84189C23.1718 3.6692 23.057 3.52185 22.9105 3.41822C22.7639 3.31458 22.5919 3.25924 22.4161 3.25908H19.7281V1.34824C19.7281 1.09485 19.6337 0.851835 19.4657 0.672659C19.2976 0.493483 19.0697 0.392822 18.8321 0.392822H1.80828C1.57065 0.392822 1.34275 0.493483 1.17472 0.672659C1.00669 0.851835 0.912292 1.09485 0.912292 1.34824V17.5904C0.912292 17.8438 1.00669 18.0868 1.17472 18.266C1.34275 18.4452 1.57065 18.5458 1.80828 18.5458H3.7257C3.93203 19.3554 4.38246 20.0701 5.0075 20.5797C5.63254 21.0892 6.39745 21.3653 7.18422 21.3653C7.97099 21.3653 8.73591 21.0892 9.36094 20.5797C9.98598 20.0701 10.4364 19.3554 10.6427 18.5458H16.2696C16.4759 19.3554 16.9263 20.0701 17.5514 20.5797C18.1764 21.0892 18.9413 21.3653 19.7281 21.3653C20.5149 21.3653 21.2798 21.0892 21.9048 20.5797C22.5298 20.0701 22.9803 19.3554 23.1866 18.5458H25.104C25.3417 18.5458 25.5696 18.4452 25.7376 18.266C25.9056 18.0868 26 17.8438 26 17.5904V10.9025C25.9998 10.7744 25.9754 10.6477 25.9283 10.5298ZM19.7281 5.16993H21.8247L23.7421 9.94703H19.7281V5.16993ZM7.18422 19.5012C6.8298 19.5012 6.48334 19.3892 6.18865 19.1792C5.89396 18.9692 5.66428 18.6708 5.52865 18.3216C5.39302 17.9725 5.35753 17.5883 5.42667 17.2176C5.49582 16.8469 5.66649 16.5065 5.9171 16.2392C6.16771 15.972 6.48701 15.79 6.83462 15.7163C7.18223 15.6425 7.54254 15.6804 7.86998 15.825C8.19742 15.9696 8.47729 16.2146 8.6742 16.5288C8.8711 16.843 8.9762 17.2125 8.9762 17.5904C8.9762 18.0972 8.7874 18.5832 8.45134 18.9416C8.11528 19.2999 7.65948 19.5012 7.18422 19.5012ZM16.2696 16.635H10.6427C10.4364 15.8254 9.98598 15.1107 9.36094 14.6011C8.73591 14.0916 7.97099 13.8155 7.18422 13.8155C6.39745 13.8155 5.63254 14.0916 5.0075 14.6011C4.38246 15.1107 3.93203 15.8254 3.7257 16.635H2.70427V2.30366H17.9361V14.3037C17.5281 14.5563 17.1709 14.8922 16.8849 15.2922C16.5989 15.6923 16.3898 16.1486 16.2696 16.635ZM19.7281 19.5012C19.3737 19.5012 19.0272 19.3892 18.7325 19.1792C18.4378 18.9692 18.2081 18.6708 18.0725 18.3216C17.9369 17.9725 17.9014 17.5883 17.9705 17.2176C18.0397 16.8469 18.2103 16.5065 18.461 16.2392C18.7116 15.972 19.0309 15.79 19.3785 15.7163C19.7261 15.6425 20.0864 15.6804 20.4138 15.825C20.7413 15.9696 21.0212 16.2146 21.2181 16.5288C21.415 16.843 21.5201 17.2125 21.5201 17.5904C21.5201 18.0972 21.3313 18.5832 20.9952 18.9416C20.6591 19.2999 20.2033 19.5012 19.7281 19.5012ZM24.208 16.635H23.1866C22.9885 15.8167 22.5415 15.0915 21.9158 14.5729C21.29 14.0543 20.5206 13.7715 19.7281 13.7687V11.8579H24.208V16.635Z" fill="#707173"/>
</svg>
