<svg width="29" height="28" viewBox="0 0 29 28" fill="none" xmlns="http://www.w3.org/2000/svg">
<path d="M0.922363 3.0153C0.922363 2.21559 1.21818 1.44864 1.74474 0.883161C2.27129 0.317683 2.98546 0 3.73012 0H26.1922C26.9369 0 27.651 0.317683 28.1776 0.883161C28.7042 1.44864 29 2.21559 29 3.0153V19.5995C29 20.3992 28.7042 21.1661 28.1776 21.7316C27.651 22.2971 26.9369 22.6148 26.1922 22.6148H19.754L15.9537 26.696C15.6904 26.9786 15.3334 27.1374 14.9612 27.1374C14.5889 27.1374 14.2319 26.9786 13.9686 26.696L10.1683 22.6148H3.73012C2.98546 22.6148 2.27129 22.2971 1.74474 21.7316C1.21818 21.1661 0.922363 20.3992 0.922363 19.5995V3.0153ZM26.1922 3.0153H3.73012V19.5995H10.7495C11.1218 19.5995 11.4789 19.7584 11.7421 20.0412L14.9612 23.4982L18.1803 20.0412C18.4435 19.7584 18.8005 19.5995 19.1728 19.5995H26.1922V3.0153ZM6.53788 8.29208C6.53788 7.89223 6.68579 7.50875 6.94907 7.22601C7.21235 6.94327 7.56943 6.78443 7.94176 6.78443H21.9806C22.3529 6.78443 22.71 6.94327 22.9733 7.22601C23.2365 7.50875 23.3844 7.89223 23.3844 8.29208C23.3844 8.69193 23.2365 9.07541 22.9733 9.35815C22.71 9.64089 22.3529 9.79973 21.9806 9.79973H7.94176C7.56943 9.79973 7.21235 9.64089 6.94907 9.35815C6.68579 9.07541 6.53788 8.69193 6.53788 8.29208ZM6.53788 14.3227C6.53788 13.9228 6.68579 13.5394 6.94907 13.2566C7.21235 12.9739 7.56943 12.815 7.94176 12.815H16.365C16.7374 12.815 17.0945 12.9739 17.3577 13.2566C17.621 13.5394 17.7689 13.9228 17.7689 14.3227C17.7689 14.7225 17.621 15.106 17.3577 15.3888C17.0945 15.6715 16.7374 15.8303 16.365 15.8303H7.94176C7.56943 15.8303 7.21235 15.6715 6.94907 15.3888C6.68579 15.106 6.53788 14.7225 6.53788 14.3227Z" fill="#707173"/>
</svg>
