<svg width="33" height="31" viewBox="0 0 33 31" fill="none" xmlns="http://www.w3.org/2000/svg">
<path d="M16.5015 7.43404C11.8199 7.43404 8.04372 10.9272 8.04372 15.2579C8.04372 19.5886 11.8199 23.0818 16.5015 23.0818C21.1831 23.0818 24.9593 19.5886 24.9593 15.2579C24.9593 10.9272 21.1831 7.43404 16.5015 7.43404ZM16.5015 20.3444C13.4761 20.3444 11.0028 18.0633 11.0028 15.2579C11.0028 12.4525 13.4688 10.1714 16.5015 10.1714C19.5342 10.1714 22.0001 12.4525 22.0001 15.2579C22.0001 18.0633 19.5269 20.3444 16.5015 20.3444ZM27.278 7.114C27.278 8.12859 26.3947 8.93889 25.3052 8.93889C24.2084 8.93889 23.3325 8.12178 23.3325 7.114C23.3325 6.10623 24.2158 5.28911 25.3052 5.28911C26.3947 5.28911 27.278 6.10623 27.278 7.114ZM32.8797 8.96613C32.7545 6.52159 32.1509 4.35624 30.215 2.57221C28.2864 0.788175 25.9456 0.229813 23.303 0.107246C20.5795 -0.0357488 12.4161 -0.0357488 9.69258 0.107246C7.05734 0.223004 4.71655 0.781366 2.78061 2.5654C0.844673 4.34943 0.248433 6.51478 0.115935 8.95932C-0.0386452 11.4788 -0.0386452 19.0303 0.115935 21.5497C0.241072 23.9942 0.844673 26.1596 2.78061 27.9436C4.71655 29.7276 7.04998 30.286 9.69258 30.4086C12.4161 30.5516 20.5795 30.5516 23.303 30.4086C25.9456 30.2928 28.2864 29.7345 30.215 27.9436C32.1436 26.1596 32.7472 23.9942 32.8797 21.5497C33.0343 19.0303 33.0343 11.4856 32.8797 8.96613ZM29.3611 24.253C28.787 25.5876 27.6755 26.6158 26.2253 27.1537C24.0539 27.9504 18.9012 27.7666 16.5015 27.7666C14.1018 27.7666 8.94176 27.9436 6.77763 27.1537C5.33487 26.6226 4.22336 25.5944 3.64185 24.253C2.78061 22.2442 2.97936 17.4777 2.97936 15.2579C2.97936 13.0381 2.78797 8.26477 3.64185 6.26284C4.216 4.92822 5.32751 3.90002 6.77763 3.36209C8.94912 2.5654 14.1018 2.74925 16.5015 2.74925C18.9012 2.74925 24.0612 2.57221 26.2253 3.36209C27.6681 3.89321 28.7796 4.92141 29.3611 6.26284C30.2224 8.27158 30.0236 13.0381 30.0236 15.2579C30.0236 17.4777 30.2224 22.251 29.3611 24.253Z" fill="#944848"/>
</svg>
