<svg width="19" height="17" viewBox="0 0 19 17" fill="none" xmlns="http://www.w3.org/2000/svg">
<path d="M17.2516 1.4842C16.7827 1.01343 16.226 0.640034 15.6133 0.385368C15.0005 0.130701 14.3439 -0.00024965 13.6807 3.57305e-07C13.0176 0.000250364 12.361 0.131696 11.7485 0.386825C11.1359 0.641953 10.5795 1.01576 10.1109 1.48689L9.4993 2.10844L8.89276 1.48824L8.88882 1.48428C8.42013 1.01373 7.86371 0.64046 7.25134 0.385797C6.63897 0.131134 5.98263 6.03124e-05 5.31981 6.03124e-05C4.65698 6.03124e-05 4.00064 0.131134 3.38827 0.385797C2.7759 0.64046 2.21948 1.01373 1.7508 1.48428L1.47832 1.75784C0.531768 2.70816 0 3.99708 0 5.34103C0 6.68499 0.531768 7.9739 1.47832 8.92422L8.66969 16.1441L9.4818 16.9984L9.50116 16.9789L9.52218 17L10.2831 16.194L17.5241 8.9241C18.4692 7.97302 19 6.6844 19 5.34091C19 3.99743 18.4692 2.7088 17.5241 1.75772L17.2516 1.4842ZM16.6316 8.02832L9.50116 15.1873L2.37051 8.02832C1.6606 7.31558 1.26178 6.3489 1.26178 5.34093C1.26178 4.33297 1.6606 3.36629 2.37051 2.65355L2.64303 2.37998C3.3526 1.6676 4.31487 1.26722 5.31835 1.26684C6.32182 1.26646 7.28439 1.66611 7.99449 2.37797L9.49658 3.91351L11.0058 2.37998C11.3573 2.02707 11.7746 1.74712 12.2339 1.55612C12.6932 1.36512 13.1855 1.26682 13.6826 1.26682C14.1797 1.26682 14.6719 1.36512 15.1312 1.55612C15.5905 1.74712 16.0078 2.02707 16.3593 2.37998L16.6318 2.65351C17.3406 3.36683 17.7387 4.33332 17.7387 5.34095C17.7387 6.34857 17.3405 7.31503 16.6316 8.02832Z" fill="#944848"/>
</svg>
