<svg width="38" height="26" viewBox="0 0 38 26" fill="none" xmlns="http://www.w3.org/2000/svg">
<path d="M29.1552 23.9999C30.8502 23.9999 32.2242 22.8688 32.2242 21.4736C32.2242 20.0783 30.8502 18.9473 29.1552 18.9473C27.4603 18.9473 26.0862 20.0783 26.0862 21.4736C26.0862 22.8688 27.4603 23.9999 29.1552 23.9999Z" stroke="#944848" stroke-width="3.8669" stroke-miterlimit="10"/>
<path d="M15.3449 23.9999C17.0398 23.9999 18.4138 22.8688 18.4138 21.4736C18.4138 20.0783 17.0398 18.9473 15.3449 18.9473C13.6499 18.9473 12.2759 20.0783 12.2759 21.4736C12.2759 22.8688 13.6499 23.9999 15.3449 23.9999Z" stroke="#944848" stroke-width="3.8669" stroke-miterlimit="10"/>
<path d="M34.7684 3.78947L31.0518 15.1579H11.9398L7.91641 1.91368C7.57576 0.789474 6.34817 0 4.93951 0H1.53449C0.68745 0 0 0.565895 0 1.26316C0 1.96042 0.68745 2.52632 1.53449 2.52632H4.93951L8.9614 15.7705C9.30359 16.8947 10.5312 17.6842 11.9398 17.6842H31.0518C32.436 17.6842 33.6482 16.9213 34.0134 15.8223L38 3.78947H34.7684Z" fill="#944848"/>
<path d="M21.4828 0V7.57895" stroke="#944848" stroke-width="3.8669" stroke-miterlimit="10"/>
<path d="M27.6208 6.31592L21.4828 11.3686L15.3449 6.31592H27.6208Z" fill="#944848"/>
</svg>
